<mxfile host="app.diagrams.net" modified="2023-11-28T14:17:50.960Z" agent="Mozilla/5.0 (Macintosh; Intel Mac OS X 10_15_7) AppleWebKit/537.36 (KHTML, like Gecko) Chrome/101.0.0.0 Safari/537.36" version="22.1.4" etag="xqCiKH06yV6DtZNCt61Z" type="github">
  <diagram name="第 1 页" id="-BfdW0XrIPi-PsMpXL3z">
    <mxGraphModel>
      <root>
        <mxCell id="0" />
        <mxCell id="1" parent="0" />
      </root>
    </mxGraphModel>
  </diagram>
</mxfile>
